<svg width="50" height="63" viewBox="0 0 50 63" fill="none" xmlns="http://www.w3.org/2000/svg">
<path d="M19.6241 0.250328C17.8959 0.878757 16.4534 1.92138 14.1682 4.23514C12.9828 5.43486 12.1115 6.4632 11.5974 7.2773C10.9546 8.29136 10.6833 8.59129 10.0977 8.9055C6.49852 10.8479 2.97075 15.2326 1.6282 19.3888C0.428474 23.1308 0.157107 24.859 0.0714123 29.3865L0 33.1714L0.528451 36.5278C1.68533 44.0118 2.57084 47.3824 4.81319 52.9526C6.58421 57.3373 8.86941 62.379 9.09793 62.379C9.14077 62.379 9.46927 61.7792 9.82633 61.0508C10.7547 59.194 11.7973 57.6658 13.1541 56.1376L14.3253 54.8236L14.5967 53.2811C14.7395 52.4384 14.8252 51.71 14.7966 51.6815C14.6824 51.5529 13.2256 52.7812 12.2401 53.8381C11.0118 55.1664 10.9975 55.1521 11.3974 53.0811C11.9544 50.1104 12.6971 48.3822 16.2249 41.9551C19.3385 36.2421 19.9812 34.5711 20.5096 30.8576C20.7239 29.3151 20.9667 28.801 21.6951 28.3011C22.0378 28.0726 22.3663 28.0297 23.8803 28.0297C25.8513 28.0297 25.9512 28.0011 27.5937 26.8157C28.0222 26.5015 28.8649 26.0873 29.4504 25.8873C30.7787 25.4446 31.55 25.0018 31.9213 24.5019L32.2212 24.1163L31.7642 22.6452C31.5071 21.8311 31.3072 20.9599 31.3072 20.6885V20.2029L34.5636 20.2886C36.7488 20.3457 38.1485 20.4457 38.8769 20.6028C43.333 21.574 46.5608 23.8735 47.7463 26.93C48.2319 28.1868 48.2033 30.3292 47.6749 31.9574C46.4608 35.6565 44.1757 38.6987 40.9621 40.8839L39.7767 41.698L40.0337 42.2122C40.1908 42.4978 40.3051 42.912 40.3051 43.1406C40.3051 43.4691 40.3479 43.5405 40.5479 43.4691C41.3192 43.1691 43.4472 41.5266 44.8184 40.1698C47.2035 37.8132 48.6889 35.4137 49.5459 32.543C50.0172 30.9148 50.1457 28.3296 49.8172 26.93C48.9031 23.0023 45.2468 20.1172 39.9766 19.146C38.5341 18.8889 34.0922 18.8032 32.1355 19.0032L31.0501 19.1175L30.9644 17.8606C30.793 15.2326 30.6502 14.5328 30.036 13.3331C29.2219 11.7191 28.5506 10.8908 27.1938 9.80529C26.5368 9.29113 25.9369 8.79124 25.8513 8.70555C25.737 8.59129 25.8084 8.29136 26.1369 7.57723C26.7653 6.20612 27.0938 4.87785 26.8939 4.44937C26.6082 3.80666 25.0943 4.06375 23.0519 5.09208L22.1664 5.53484V4.39224C22.1664 3.07826 21.8664 1.62144 21.4094 0.678802C21.0381 -0.0924492 20.7381 -0.16386 19.6241 0.250328Z" fill="#78B1EA"/>
<path d="M40.2478 23.9449C40.205 24.0163 40.0907 24.7447 40.005 25.5588C39.8479 27.1727 39.6051 28.2296 39.0767 29.715C37.9769 32.8286 36.9486 34.4568 34.9062 36.3992C33.2066 38.0131 31.607 38.9986 29.6217 39.6699L28.1792 40.1698L27.665 39.5699C27.3793 39.2414 26.9366 38.8986 26.6367 38.7986C24.5514 38.1131 20.9522 40.3554 18.667 43.7975C16.4533 47.1396 15.2393 50.8245 15.2393 54.3094C15.2393 55.2806 15.325 56.3661 15.4392 56.8088C15.7534 58.08 16.5247 59.5939 17.2388 60.3652C18.1386 61.3221 18.8242 61.5792 20.281 61.4935C21.9949 61.3935 23.2946 60.7079 24.9656 59.0369C26.0939 57.8943 26.351 57.5515 27.0651 56.0947C27.5365 55.1235 28.0792 53.7238 28.3791 52.6955C28.8933 50.8816 29.1932 48.8249 28.9219 48.9963C28.8362 49.0535 28.3363 50.1104 27.8078 51.3387C26.4653 54.4808 25.8226 55.7234 24.9656 56.8802C22.8518 59.6939 19.7668 60.6651 18.11 59.0083C17.1103 58.0228 16.5104 55.6948 16.6532 53.381C16.9674 48.1251 20.1381 42.5549 23.9087 40.6554C24.9228 40.1412 26.0939 39.9698 26.5081 40.2697C26.7509 40.4554 26.6938 40.5125 25.7797 41.0696C24.023 42.1407 23.4088 42.9406 23.4088 44.1974C23.4088 45.0115 23.6516 45.5114 24.2372 45.897C25.3655 46.6397 27.208 44.8687 27.9364 42.355L28.1792 41.5694L29.7645 41.2409C32.9067 40.6268 35.0062 39.5699 36.8915 37.6846C38.4483 36.1135 39.1624 34.9281 40.0479 32.4001C40.862 30.0721 41.0762 28.9152 41.0619 26.8157C41.0477 25.7588 40.9905 24.659 40.9191 24.3876C40.8049 23.902 40.4192 23.6592 40.2478 23.9449ZM26.5938 42.4978C26.5938 42.6978 25.8226 43.6833 25.3227 44.1689C24.9656 44.4974 24.8371 44.5545 24.7514 44.3974C24.4943 43.9832 24.8228 43.469 25.7369 42.8406C26.4081 42.3693 26.5938 42.2979 26.5938 42.4978Z" fill="#78B1EA"/>
<path d="M38.2053 42.3837C37.6482 42.6122 36.9198 44.4261 36.6056 46.3828C36.4342 47.3682 36.3771 47.4968 35.8344 47.9824C35.3345 48.4109 35.2631 48.5394 35.4202 48.6965C35.5202 48.7965 35.7772 48.8822 35.9915 48.8822C36.3343 48.8822 36.3771 48.9393 36.42 49.3821C36.4342 49.6534 36.5628 50.4104 36.677 51.0531L36.9056 52.2386L36.3771 53.3812C35.763 54.6666 35.463 55.0236 35.0488 54.8951C34.2919 54.6523 34.0634 52.5099 34.5061 49.9534C34.6918 48.8822 34.6918 48.7108 34.5061 48.4251C33.8491 47.3968 31.4639 48.8822 30.0928 51.1674C29.1502 52.7385 28.7503 54.8665 29.193 55.9092C29.4358 56.4805 30.1785 57.2374 30.4785 57.2374C31.2069 57.2374 31.9495 56.5519 32.6494 55.2379L33.135 54.3381L33.4206 54.8951C33.8348 55.7092 34.7489 56.3805 35.4345 56.3805C36.0629 56.3805 37.3055 54.7666 37.3055 53.9239C37.3055 53.4669 37.6197 53.4954 38.1481 54.0096C38.7766 54.6237 39.4478 54.7951 39.9334 54.4666C40.4048 54.1667 41.1332 53.0955 41.4045 52.31C41.7759 51.2245 41.6188 51.1817 40.4762 52.11C39.2622 53.0812 39.0908 53.0669 38.5766 52.01L38.2624 51.3388L38.7052 50.0391C38.948 49.3249 39.2479 48.3823 39.3621 47.9538C39.5764 47.1969 39.6192 47.154 40.4762 46.7113C42.0615 45.8972 44.8752 44.2261 44.8752 44.0976C44.8752 44.0404 43.7469 44.4261 42.3615 44.9688C40.9903 45.5115 39.8192 45.9543 39.7763 45.9543C39.7335 45.9543 39.7335 45.5829 39.7763 45.1259C39.8906 43.9833 39.6906 42.6693 39.3764 42.4265C39.0765 42.2123 38.6623 42.198 38.2053 42.3837ZM38.848 45.0973C38.8051 46.397 38.6909 46.6541 38.1767 46.6684C37.9482 46.6684 38.0339 45.7972 38.3909 44.5546C38.7194 43.3977 38.9194 43.612 38.848 45.0973ZM38.2624 48.9679L38.0624 49.4535L37.9482 48.8251C37.8625 48.2966 37.8911 48.1538 38.1053 47.9967C38.3481 47.811 38.3767 47.8253 38.4195 48.1395C38.4481 48.3395 38.3767 48.7108 38.2624 48.9679ZM33.0921 50.5961C32.6922 52.3671 31.6782 54.5523 30.9498 55.2379L30.607 55.5664L30.4356 55.195C29.9786 54.1953 30.9641 51.653 32.4209 50.0676C33.3492 49.0679 33.4349 49.1393 33.0921 50.5961Z" fill="#78B1EA"/>
<path d="M35.1924 43.826C33.1215 44.683 30.7649 45.4257 27.6085 46.2255C24.6377 46.9825 22.8952 47.5252 21.0528 48.2536C19.7103 48.782 18.4106 49.4533 18.2106 49.6961C17.8678 50.1389 17.4108 52.4955 17.7107 52.3527C21.2242 50.5531 23.2952 49.7675 27.2371 48.7535C30.4364 47.9394 31.0077 47.7537 33.6499 46.7539C36.3208 45.7399 36.3065 45.7399 36.3065 45.2686C36.3065 45.0543 36.4065 44.5259 36.5207 44.0974C36.635 43.6689 36.7349 43.2976 36.7349 43.269C36.7349 43.1976 36.4779 43.2976 35.1924 43.826Z" fill="#78B1EA"/>
</svg>
